<?xml version="1.0" encoding="iso-8859-1"?>
<!-- Generator: Adobe Illustrator 19.0.0, SVG Export Plug-In . SVG Version: 6.00 Build 0)  -->
<svg xmlns="http://www.w3.org/2000/svg" xmlns:xlink="http://www.w3.org/1999/xlink" version="1.1" id="Layer_1" x="0px" y="0px" viewBox="0 0 512.001 512.001" style="enable-background:new 0 0 512.001 512.001;" xml:space="preserve" width="512" height="512">
<g id="XMLID_1636_">
	<g id="XMLID_1859_">
		<path id="XMLID_3778_" d="M114.001,511.933h-104c-5.523,0-10-4.478-10-10v-144c0-5.522,4.477-10,10-10h104c5.523,0,10,4.478,10,10    v144C124.001,507.455,119.524,511.933,114.001,511.933z M20.001,491.933h84v-124h-84V491.933z"/>
	</g>
	<g id="XMLID_1138_">
		<path id="XMLID_3777_" d="M204.001,421.93c-2.63,0-5.21-1.07-7.07-2.93c-1.86-1.86-2.93-4.44-2.93-7.07s1.07-5.21,2.93-7.07    c1.86-1.859,4.44-2.93,7.07-2.93c2.63,0,5.21,1.07,7.07,2.93c1.86,1.86,2.93,4.44,2.93,7.07s-1.07,5.21-2.93,7.07    C209.211,420.86,206.631,421.93,204.001,421.93z"/>
	</g>
	<g id="XMLID_1133_">
		<path id="XMLID_3776_" d="M308.001,511.933h-104c-5.523,0-10-4.478-10-10v-50c0-5.522,4.477-10,10-10s10,4.478,10,10v40h84v-180    h-84v60c0,5.522-4.477,10-10,10s-10-4.478-10-10v-70c0-5.522,4.477-10,10-10h104c5.523,0,10,4.478,10,10v200    C318.001,507.455,313.524,511.933,308.001,511.933z"/>
	</g>
	<g id="XMLID_1129_">
		<path id="XMLID_3775_" d="M398.001,354.241c-2.63,0-5.21-1.07-7.07-2.931c-1.86-1.87-2.93-4.439-2.93-7.08    c0-2.63,1.07-5.199,2.93-7.069c1.86-1.86,4.44-2.931,7.07-2.931c2.63,0,5.21,1.07,7.07,2.931c1.86,1.87,2.93,4.439,2.93,7.069    c0,2.641-1.07,5.21-2.93,7.08C403.211,353.17,400.631,354.241,398.001,354.241z"/>
	</g>
	<g id="XMLID_1128_">
		<path id="XMLID_3774_" d="M502.001,511.933h-104c-5.523,0-10-4.478-10-10v-120c0-5.522,4.477-10,10-10s10,4.478,10,10v110h84v-262    h-84v70.37c0,5.522-4.477,10-10,10s-10-4.478-10-10v-80.37c0-5.522,4.477-10,10-10h104c5.523,0,10,4.478,10,10v282    C512.001,507.455,507.524,511.933,502.001,511.933z"/>
	</g>
	<g id="XMLID_1638_">
		<path id="XMLID_3771_" d="M30.879,265.933H10.001c-5.041,0-9.293-3.751-9.922-8.753c-0.629-5.001,2.563-9.688,7.446-10.936    l22.283-5.693C163.935,206.28,290.68,141.423,397.047,52.725l-27.238-27.238c-2.86-2.86-3.716-7.161-2.168-10.898    c1.548-3.736,5.194-6.173,9.239-6.173h125.121c5.523,0,10,4.478,10,10v125.12c0,4.045-2.437,7.691-6.173,9.238    c-3.74,1.549-8.04,0.692-10.898-2.167l-29.73-29.729c-61.106,45.946-128.745,81.729-201.175,106.415    C188.796,252.933,110.354,265.933,30.879,265.933z M401.022,28.415l17.862,17.861c1.972,1.972,3.03,4.678,2.921,7.464    s-1.377,5.4-3.498,7.211c-55.214,47.161-115.887,88.027-180.332,121.465c-46.649,24.203-95.335,44.546-145.344,60.755    c132.871-11.879,261.402-61.772,367.355-143.463c3.982-3.069,9.623-2.706,13.177,0.849l18.837,18.837V28.415H401.022z"/>
	</g>
	<g id="XMLID_2201_">
		<path id="XMLID_169_" d="M91.001,81.403c-5.006,0-9.235-3.415-9.235-7.458c0-4.042,4.229-7.457,9.235-7.457    s9.235,3.415,9.235,7.457c0,5.522,4.477,10,10,10s10-4.478,10-10c0-11.85-8.035-21.969-19.257-25.808    c-0.223-5.325-4.598-9.578-9.979-9.578s-9.756,4.253-9.979,9.578c-11.221,3.839-19.257,13.958-19.257,25.808    c0,15.141,13.115,27.458,29.235,27.458c5.006,0,9.235,3.415,9.235,7.457s-4.229,7.457-9.235,7.457s-9.235-3.415-9.235-7.457    c0-5.522-4.477-10-10-10s-10,4.478-10,10c0,11.865,8.056,21.994,19.299,25.822c0.55,5.003,4.786,8.897,9.936,8.897    s9.386-3.894,9.936-8.897c11.244-3.828,19.299-13.957,19.299-25.822C120.236,93.72,107.121,81.403,91.001,81.403z"/>
		<g id="XMLID_2193_">
			<path id="XMLID_3764_" d="M91.001,182.068c-50.178,0-91-40.822-91-91s40.822-91,91-91s91,40.822,91,91     S141.178,182.068,91.001,182.068z M91.001,20.068c-39.149,0-71,31.851-71,71s31.851,71,71,71s71-31.851,71-71     S130.15,20.068,91.001,20.068z"/>
		</g>
	</g>
</g>















</svg>
